<svg aria-hidden="true" style="position: absolute; width: 0; height: 0; overflow: hidden;" version="1.1" xmlns="http://www.w3.org/2000/svg" xmlns:xlink="http://www.w3.org/1999/xlink">
    <defs>
        <symbol id="icon-logo" viewBox="0 0 75 32">
            <path d="M13.276 2.334c-0.141 0-0.29 0-0.43 0.017-1.623 0.135-3.115 0.825-4.177 2.081-1.156 1.367-1.435 2.807-1.422 4.547l-3.092-0.005c-0.138-0-0.282-0.004-0.427-0.008-0.403-0.011-0.822-0.023-1.2 0.046-0.228 0.042-0.427 0.153-0.587 0.319-0.281 0.292-0.287 0.661-0.269 1.039 0.029 0.596 0.080 1.193 0.131 1.789 0.028 0.324 0.056 0.649 0.080 0.973l0.513 6.632 0.25 3.203c0.012 0.158 0.022 0.318 0.032 0.478 0.035 0.573 0.071 1.155 0.222 1.703 0.261 0.932 0.779 1.772 1.495 2.425 0.625 0.568 1.381 0.973 2.201 1.179 0.693 0.167 1.498 0.148 2.255 0.131 0.225-0.005 0.446-0.010 0.658-0.011l7.799 0c0.199 0 0.403 0.005 0.61 0.010 0.671 0.016 1.371 0.033 1.999-0.114 0.883-0.206 1.776-0.69 2.421-1.329 0.6-0.595 1.079-1.389 1.288-2.21 0.16-0.628 0.201-1.317 0.239-1.985 0.013-0.215 0.025-0.429 0.041-0.637l0.341-4.392 0.425-5.393c0.021-0.266 0.047-0.536 0.074-0.805 0.058-0.585 0.116-1.174 0.115-1.752-0.001-0.355-0.076-0.687-0.331-0.951-0.175-0.182-0.462-0.271-0.704-0.31-0.363-0.059-0.762-0.049-1.148-0.038-0.143 0.004-0.283 0.008-0.42 0.008-0.973-0.002-1.945 0.002-2.918 0.010l-0.042 0.001c0.023-1.864-0.392-3.463-1.732-4.826-1.119-1.16-2.66-1.818-4.272-1.825h-0.020zM19.17 12.964l0.052 0.003c0.001 0.004 0.003 0.007 0.004 0.010 0.001 0.002 0.001 0.003 0.002 0.005 0.002 0.006 0.004 0.010 0.006 0.015l0.002 0.005c0.010 0.022 0.011 0.026 0.011 0.061-0.017 2.285-0.628 5.227-2.25 6.901-1.502 1.55-3.834 2.31-5.961 2.352 0.991-1.863 2.583-3.63 4.225-4.943 0.254-0.203 0.52-0.386 0.786-0.57 0.171-0.118 0.343-0.236 0.511-0.36 0.163-0.12 0.383-0.283 0.407-0.501 0.021-0.201-0.086-0.358-0.212-0.501-0.177-0.102-0.306-0.145-0.507-0.086-0.286 0.084-0.575 0.296-0.835 0.487-0.069 0.051-0.136 0.1-0.2 0.145-2.105 1.491-3.855 3.429-5.123 5.676-0.043-1.828 0.373-3.359 1.494-4.829 1.682-2.206 4.902-3.503 7.59-3.869zM2.825 10.119l20.889-0c-0.074 0.704-0.122 1.413-0.17 2.122-0.027 0.395-0.053 0.79-0.085 1.183l-0.563 7.048-0.21 2.597c-0.009 0.113-0.018 0.226-0.026 0.34-0.034 0.448-0.068 0.9-0.154 1.339-0.089 0.45-0.261 0.842-0.495 1.234-0.090 0.137-0.188 0.268-0.293 0.394-0.606 0.724-1.6 1.263-2.544 1.334-0.514 0.039-1.043 0.029-1.567 0.019-0.227-0.004-0.453-0.008-0.676-0.009l-7.783 0c-0.166 0-0.336 0.004-0.506 0.007-0.523 0.011-1.059 0.022-1.561-0.065-0.659-0.115-1.276-0.406-1.784-0.841-0.609-0.513-1.045-1.201-1.252-1.969-0.141-0.51-0.176-1.053-0.211-1.586-0.009-0.134-0.017-0.267-0.028-0.399l-0.205-2.643-0.778-10.107zM19.634 11.739l-0.015 0.002c-3.171 0.367-6.781 1.671-8.831 4.24-1.317 1.651-2.037 3.798-1.799 5.913 0.052 0.464 0.157 0.908 0.309 1.35-0.017 0.044-0.038 0.096-0.062 0.156-0.26 0.654-0.865 2.174-0.655 2.624 0.061 0.13 0.185 0.217 0.319 0.26 0.055 0.017 0.111 0.027 0.169 0.034 0.178-0.029 0.342-0.066 0.449-0.225 0.115-0.171 0.232-0.582 0.333-0.933 0.048-0.167 0.092-0.321 0.13-0.429 0.13-0.37 0.278-0.734 0.426-1.098l0.002-0.004c0.017-0.043 0.035-0.085 0.052-0.128 2.615 0.008 5.408-0.811 7.299-2.677 2.115-2.088 2.648-5.454 2.653-8.303 0-0.225-0.015-0.491-0.179-0.663-0.101-0.106-0.253-0.138-0.394-0.134-0.068 0.002-0.136 0.009-0.204 0.016zM13.022 3.477c0.101-0.006 0.203-0.012 0.304-0.011 1.242 0.009 2.486 0.564 3.358 1.44 1.188 1.192 1.431 2.457 1.434 4.074l-9.671 0.004c-0.039-1.391 0.185-2.661 1.097-3.759 0.876-1.055 2.127-1.627 3.478-1.748z"></path>
            <path d="M19.222 12.967l-0.052-0.003c-2.688 0.366-5.907 1.663-7.59 3.869-1.121 1.47-1.537 3.001-1.494 4.829 1.268-2.247 3.018-4.185 5.123-5.676 0.065-0.045 0.132-0.094 0.2-0.145 0.26-0.191 0.549-0.403 0.835-0.487 0.202-0.059 0.331-0.017 0.507 0.086 0.126 0.144 0.233 0.3 0.212 0.502-0.023 0.219-0.243 0.381-0.407 0.501-0.168 0.123-0.34 0.242-0.511 0.36-0.266 0.183-0.532 0.367-0.786 0.57-1.642 1.312-3.234 3.079-4.225 4.943 2.127-0.042 4.459-0.803 5.961-2.352 1.622-1.674 2.234-4.616 2.25-6.901 0-0.035-0.001-0.039-0.011-0.061-0.002-0.005-0.005-0.012-0.008-0.020-0.002-0.004-0.004-0.009-0.006-0.015zM19.618 11.741l0.015-0.002c0.068-0.007 0.136-0.014 0.204-0.016 0.141-0.003 0.293 0.029 0.394 0.134 0.164 0.172 0.18 0.438 0.179 0.663-0.004 2.849-0.537 6.215-2.653 8.303-1.892 1.866-4.684 2.685-7.299 2.677-0.017 0.043-0.035 0.085-0.052 0.128l-0.002 0.004c-0.148 0.363-0.296 0.727-0.426 1.098-0.038 0.108-0.082 0.262-0.13 0.429-0.101 0.351-0.218 0.762-0.333 0.933-0.107 0.159-0.271 0.196-0.449 0.225-0.058-0.007-0.113-0.017-0.169-0.034-0.134-0.043-0.258-0.13-0.319-0.26-0.21-0.45 0.395-1.97 0.655-2.624 0.024-0.060 0.045-0.112 0.062-0.156-0.152-0.442-0.257-0.885-0.309-1.35-0.238-2.114 0.482-4.262 1.799-5.913 2.050-2.569 5.66-3.873 8.831-4.24z"></path>
            <path d="M19.634 11.739l-0.015 0.002c-3.171 0.367-6.781 1.671-8.831 4.24-1.317 1.651-2.037 3.798-1.799 5.913 0.052 0.464 0.157 0.908 0.309 1.35-0.017 0.044-0.038 0.096-0.062 0.156-0.26 0.654-0.865 2.174-0.655 2.624 0.061 0.13 0.185 0.217 0.319 0.26 0.055 0.017 0.111 0.027 0.169 0.034 0.178-0.029 0.342-0.066 0.449-0.225 0.115-0.171 0.232-0.581 0.333-0.933 0.048-0.167 0.092-0.321 0.13-0.43 0.13-0.37 0.278-0.734 0.426-1.098 0.001-0.001 0.001-0.003 0.002-0.004 0.017-0.043 0.035-0.085 0.052-0.128 2.615 0.008 5.408-0.811 7.299-2.677 2.115-2.088 2.648-5.454 2.653-8.303 0-0.225-0.015-0.491-0.179-0.663-0.101-0.106-0.253-0.138-0.394-0.134-0.068 0.002-0.136 0.009-0.204 0.016zM19.17 12.964l0.052 0.003c0.002 0.005 0.004 0.010 0.006 0.015 0.003 0.008 0.006 0.014 0.008 0.020 0.010 0.022 0.011 0.026 0.011 0.061-0.017 2.285-0.628 5.227-2.25 6.901-1.502 1.55-3.834 2.31-5.961 2.352 0.991-1.863 2.583-3.63 4.225-4.943 0.254-0.203 0.52-0.386 0.786-0.57 0.171-0.118 0.343-0.236 0.511-0.36 0.163-0.12 0.383-0.283 0.406-0.501 0.021-0.201-0.086-0.358-0.212-0.502-0.177-0.102-0.306-0.145-0.508-0.086-0.286 0.084-0.575 0.296-0.835 0.487-0.069 0.051-0.136 0.1-0.2 0.145-2.105 1.491-3.855 3.429-5.123 5.676-0.043-1.828 0.373-3.359 1.494-4.829 1.682-2.206 4.902-3.503 7.59-3.869z"></path>
            <path d="M60.463 19.483c-0.079-2.246-1.964-4.002-4.21-3.923s-4.003 1.964-3.924 4.21c0.079 2.246 1.965 4.003 4.211 3.924s4.002-1.965 3.923-4.211zM56.395 16.781c0.655 0.027 1.186 0.184 1.686 0.626 0.595 0.527 0.927 1.288 0.971 2.076s-0.204 1.589-0.742 2.177c-0.491 0.537-1.103 0.778-1.82 0.813-0.654-0.007-1.194-0.109-1.711-0.538-0.603-0.502-0.944-1.244-1.008-2.019-0.066-0.806 0.145-1.639 0.679-2.257 0.531-0.613 1.157-0.824 1.945-0.878z"></path>
            <path d="M49.153 19.146c-0.268-2.234-2.297-3.825-4.53-3.554-2.227 0.271-3.814 2.294-3.547 4.522s2.287 3.818 4.515 3.555c2.234-0.264 3.83-2.29 3.562-4.523zM44.753 16.814c0.651-0.053 1.242 0.015 1.792 0.394 0.618 0.425 1.006 1.081 1.135 1.814 0.146 0.832 0.009 1.723-0.492 2.416-0.438 0.607-0.986 0.909-1.716 1.025-0.667 0.034-1.256-0.006-1.817-0.404-0.606-0.427-1.014-1.079-1.132-1.811-0.136-0.807 0.027-1.735 0.508-2.406 0.423-0.59 1.014-0.916 1.722-1.029z"></path>
            <path d="M68.995 15.555c-0.020 0.001-0.040 0.002-0.060 0.005-1.024 0.121-1.947 0.617-2.591 1.43-0.735 0.928-0.987 2.105-0.842 3.269 0.119 1.022 0.642 1.954 1.452 2.589 0.96 0.746 2.178 0.935 3.364 0.773 0.687-0.094 1.718-0.423 2.157-0.994 0.124-0.16 0.186-0.356 0.157-0.559-0.020-0.142-0.082-0.278-0.199-0.365-0.135-0.1-0.314-0.113-0.474-0.081-0.222 0.043-0.421 0.181-0.61 0.311-0.040 0.027-0.079 0.055-0.118 0.080-0.829 0.431-1.748 0.633-2.659 0.338-0.648-0.213-1.184-0.679-1.485-1.292-0.157-0.313-0.235-0.646-0.305-0.987h3.91c0.162 0 0.337 0.006 0.516 0.012 0.464 0.015 0.96 0.031 1.369-0.042 0.117-0.021 0.228-0.083 0.313-0.166 0.192-0.187 0.226-0.452 0.221-0.708-0.022-0.979-0.482-1.946-1.194-2.608-0.823-0.765-1.815-1.053-2.922-1.003zM69.115 16.779c0.593-0.070 1.192 0.082 1.681 0.426 0.584 0.416 0.891 1.005 1.014 1.7-0.495 0.006-0.992 0.005-1.488 0.003-0.248-0.001-0.496-0.001-0.744-0.001l-2.75 0.004c0.126-0.423 0.272-0.807 0.543-1.162 0.436-0.571 1.039-0.877 1.743-0.969z"></path>
            <path d="M47.219 12.647c1.468-0.035 2.943-0.002 4.411-0.005 0.836-0.001 1.905-0.069 2.717 0.014 0.131 0.014 0.235 0.051 0.334 0.137 0.141 0.123 0.235 0.31 0.24 0.498 0.004 0.17-0.1 0.366-0.223 0.48-0.094 0.087-0.206 0.122-0.33 0.142-0.338 0.054-0.711 0.023-1.054 0.022l-1.822-0.003-0.001 6.762c0.003 0.57 0.075 1.813-0.011 2.297-0.027 0.152-0.082 0.304-0.187 0.421-0.113 0.125-0.268 0.188-0.435 0.192-0.175 0.004-0.346-0.034-0.472-0.162-0.149-0.149-0.203-0.368-0.221-0.572-0.034-0.375-0.003-0.773 0.001-1.15 0.006-0.558 0.001-1.116 0.001-1.674l0.004-6.116c-0.606 0.003-2.703 0.099-3.133-0.095-0.157-0.071-0.255-0.181-0.312-0.344-0.061-0.174-0.033-0.359 0.055-0.518 0.103-0.187 0.24-0.267 0.438-0.328z"></path>
            <path d="M37.62 15.56c0.545-0.031 1.078 0.004 1.607 0.146 0.559 0.15 1.414 0.479 1.703 1.010 0.079 0.146 0.121 0.321 0.065 0.482-0.057 0.165-0.214 0.291-0.371 0.355-0.46 0.188-1.035-0.445-1.468-0.608-0.703-0.265-1.549-0.25-2.233 0.069-0.629 0.294-1.080 0.849-1.314 1.495-0.272 0.749-0.295 1.726 0.050 2.456 0.32 0.677 0.908 1.15 1.606 1.396 0.798 0.282 1.63 0.132 2.377-0.226 0.231-0.125 0.441-0.292 0.705-0.347 0.136-0.028 0.271-0.013 0.387 0.067 0.143 0.099 0.258 0.295 0.277 0.468 0.018 0.162-0.045 0.311-0.146 0.436-0.437 0.541-1.408 0.813-2.070 0.894-1.148 0.141-2.343-0.089-3.262-0.822-0.863-0.675-1.413-1.674-1.52-2.764-0.114-1.086 0.205-2.174 0.887-3.027 0.691-0.85 1.635-1.365 2.721-1.481z"></path>
            <path d="M62.132 13.507c0.023-0.001 0.046-0.002 0.068-0.003 0.203-0.006 0.408 0.048 0.552 0.198 0.343 0.358 0.207 1.566 0.203 2.061 0.467 0.003 1.604-0.142 1.954 0.169 0.127 0.113 0.178 0.269 0.179 0.436 0.001 0.162-0.041 0.317-0.161 0.431-0.327 0.31-1.509 0.188-1.972 0.185 0.004 0.993-0.13 4.054 0.176 4.808 0.495 1.218 1.567 0.147 2.179 0.435 0.131 0.062 0.238 0.192 0.287 0.328 0.069 0.193 0.007 0.366-0.072 0.543-0.014 0.015-0.027 0.030-0.041 0.044-0.37 0.385-1.064 0.478-1.574 0.485-0.592 0.009-1.151-0.092-1.588-0.53-0.316-0.316-0.512-0.751-0.608-1.183-0.149-0.667-0.087-1.406-0.087-2.087l0.002-2.842c-0.359-0-0.718-0.003-1.077-0.009-0.059-0.037-0.117-0.075-0.169-0.122-0.142-0.128-0.206-0.318-0.211-0.506-0.004-0.157 0.044-0.312 0.161-0.421 0.29-0.268 0.927-0.172 1.296-0.166-0.001-0.517-0.114-1.444 0.081-1.899 0.087-0.202 0.229-0.275 0.423-0.356z"></path>
            <path d="M33.666 13.313c-0.618-0.061-3.644-0.039-4.694-0.024-0.193 0.003-0.372 0.016-0.529 0.028-0.134 0.010-0.252 0.018-0.349 0.019 0 0-0.418 0.098-0.553 0.286-0.089 0.123-0.119 0.28-0.14 0.427-0.112 0.782-0.178 1.579-0.243 2.374-0.034 0.418-0.069 0.836-0.11 1.25l-0.398 4.018c-0.011 0.107-0.029 0.254-0.050 0.421-0.067 0.538-0.161 1.284-0.1 1.58 0.033 0.164 0.121 0.3 0.266 0.386 0.143 0.085 0.306 0.133 0.469 0.16h0.001c0.338-0.001 0.847 0.005 1.416 0.010 1.179 0.012 4.178 0.027 4.876-0.003 0.139-0.006 0.286-0.018 0.417-0.067 0.176-0.067 0.321-0.194 0.39-0.371 0.070-0.178 0.055-0.378-0.025-0.55-0.080-0.174-0.188-0.266-0.369-0.324h-6.028c0.101-0.887 0.19-1.776 0.27-2.666l0.071-0.723 0.007-0.072c0.047 0.001 0.109 0.002 0.183 0.003 0.614 0.009 3.602 0.031 3.983-0.026 0.14-0.021 0.27-0.056 0.372-0.159 0.132-0.134 0.187-0.318 0.176-0.503-0.009-0.157-0.079-0.328-0.198-0.434-0.080-0.070-0.178-0.116-0.284-0.131-0.356-0.052-3.012-0.038-3.683-0.029-0.18 0.002-0.329 0.004-0.426 0.004l0.306-3.605h3.253c0.166 0 0.339 0.006 0.514 0.011 0.425 0.014 0.865 0.028 1.259-0.034 0.14-0.021 0.261-0.070 0.363-0.172 0.125-0.125 0.193-0.315 0.183-0.491-0.010-0.179-0.106-0.35-0.247-0.46-0.107-0.084-0.215-0.122-0.349-0.135z"></path>
        </symbol>
        <symbol id="icon-linkedIn" viewBox="0 0 32 32">
            <path d="M25.675 4.554h-18.72c-1.188 0-2.16 0.972-2.16 2.16v18.72c0 1.188 0.972 2.16 2.16 2.16h18.72c1.188 0 2.16-0.972 2.16-2.16v-18.72c0-1.188-0.972-2.16-2.16-2.16zM13.435 23.274h-2.88v-10.080h2.88v10.080zM11.995 11.754c-0.796 0-1.44-0.644-1.44-1.44s0.644-1.44 1.44-1.44c0.796 0 1.44 0.644 1.44 1.44s-0.644 1.44-1.44 1.44zM23.515 23.274h-2.88v-5.76c0-0.796-0.644-1.44-1.44-1.44s-1.44 0.644-1.44 1.44v5.76h-2.88v-10.080h2.88v1.786c0.594-0.814 1.503-1.786 2.52-1.786 1.791 0 3.24 1.611 3.24 3.6v6.48z"></path>
        </symbol>
        <symbol id="icon-instagram" viewBox="0 0 32 32">
            <path d="M16.313 6.629c3.078 0 3.442 0.014 4.652 0.068 1.125 0.050 1.732 0.238 2.137 0.396 0.536 0.207 0.922 0.459 1.323 0.86 0.405 0.405 0.652 0.788 0.864 1.323 0.158 0.405 0.346 1.017 0.396 2.137 0.054 1.215 0.068 1.579 0.068 4.653s-0.014 3.442-0.068 4.653c-0.050 1.125-0.238 1.732-0.396 2.137-0.207 0.536-0.459 0.922-0.86 1.323-0.405 0.405-0.788 0.652-1.323 0.864-0.405 0.158-1.017 0.346-2.137 0.396-1.215 0.054-1.58 0.068-4.653 0.068s-3.442-0.014-4.653-0.068c-1.125-0.050-1.732-0.238-2.137-0.396-0.536-0.207-0.922-0.459-1.323-0.86-0.405-0.405-0.652-0.788-0.864-1.322-0.158-0.405-0.346-1.017-0.396-2.137-0.054-1.215-0.068-1.579-0.068-4.653s0.014-3.442 0.068-4.653c0.050-1.125 0.238-1.732 0.396-2.137 0.207-0.536 0.459-0.922 0.86-1.323 0.405-0.405 0.788-0.652 1.323-0.864 0.405-0.158 1.017-0.346 2.137-0.396 1.21-0.054 1.575-0.068 4.653-0.068h0.001zM16.313 4.554c-3.127 0-3.518 0.014-4.747 0.068-1.224 0.054-2.065 0.252-2.794 0.536-0.76 0.297-1.404 0.688-2.042 1.332-0.644 0.639-1.035 1.282-1.332 2.038-0.284 0.734-0.482 1.57-0.536 2.794-0.054 1.233-0.068 1.624-0.068 4.751s0.014 3.518 0.068 4.747c0.054 1.224 0.252 2.065 0.536 2.794 0.297 0.76 0.688 1.404 1.332 2.042 0.639 0.639 1.282 1.035 2.038 1.328 0.734 0.284 1.57 0.482 2.794 0.536 1.228 0.054 1.62 0.068 4.747 0.068s3.519-0.014 4.747-0.068c1.224-0.054 2.065-0.252 2.794-0.536 0.756-0.292 1.4-0.688 2.038-1.328s1.035-1.282 1.328-2.038c0.284-0.734 0.482-1.57 0.536-2.794 0.054-1.228 0.068-1.62 0.068-4.747s-0.014-3.518-0.068-4.747c-0.054-1.224-0.252-2.065-0.536-2.794-0.284-0.765-0.675-1.408-1.318-2.047-0.639-0.639-1.282-1.035-2.038-1.327-0.734-0.284-1.57-0.482-2.794-0.536-1.232-0.058-1.624-0.072-4.751-0.072l-0.001 0.001z"></path>
            <path d="M16.313 10.156c-3.266 0-5.917 2.65-5.917 5.917s2.65 5.917 5.917 5.917c3.267 0 5.917-2.65 5.917-5.917s-2.65-5.917-5.917-5.917zM16.313 19.911c-2.119 0-3.838-1.718-3.838-3.838s1.718-3.838 3.838-3.838c2.119 0 3.838 1.718 3.838 3.838s-1.718 3.838-3.838 3.838z"></path>
            <path d="M23.844 9.922c0 0.763-0.618 1.382-1.381 1.382s-1.381-0.618-1.381-1.381 0.619-1.381 1.381-1.381c0.763 0 1.381 0.618 1.381 1.381z"></path>
        </symbol>
        <symbol id="icon-burger" viewBox="0 0 32 32">
            <path d="M5.333 8h21.333v2.667h-21.333v-2.667zM5.333 14.667h21.333v2.667h-21.333v-2.667zM5.333 21.333h21.333v2.667h-21.333v-2.667z"></path>
        </symbol>
        <symbol id="icon-close" viewBox="0 0 32 32">
            <path d="M21.589 8.459l-5.657 5.656-5.656-5.656-1.885 1.885 5.656 5.656-5.656 5.656 1.885 1.885 5.656-5.656 5.657 5.656 1.885-1.885-5.656-5.656 5.656-5.656-1.885-1.885z"></path>
        </symbol>
        <symbol id="icon-youtube" viewBox="0 0 32 32">
            <path d="M28.594 9.934c-0.146-0.541-0.431-1.034-0.826-1.431s-0.888-0.683-1.429-0.83c-2.004-0.55-10.024-0.559-10.024-0.559s-8.018-0.009-10.024 0.517c-0.54 0.154-1.032 0.444-1.428 0.842s-0.683 0.892-0.833 1.433c-0.529 2.004-0.534 6.162-0.534 6.162s-0.005 4.178 0.52 6.162c0.294 1.097 1.158 1.964 2.257 2.259 2.025 0.55 10.022 0.559 10.022 0.559s8.019 0.009 10.024-0.516c0.541-0.147 1.034-0.432 1.431-0.828s0.683-0.888 0.831-1.429c0.53-2.003 0.534-6.159 0.534-6.159s0.026-4.179-0.521-6.184zM13.75 19.92l0.006-7.68 6.665 3.846-6.671 3.834z"></path>
        </symbol>
        <symbol id="icon-star" viewBox="0 0 34 32">
            <path d="M15.707 1.468c0.55-1.306 2.423-1.306 2.973 0l3.246 7.71c0.232 0.551 0.756 0.927 1.358 0.975l8.426 0.667c1.428 0.113 2.006 1.873 0.919 2.793l-6.419 5.432c-0.459 0.388-0.659 0.997-0.519 1.577l1.961 8.123c0.332 1.376-1.183 2.464-2.405 1.727l-7.214-4.353c-0.515-0.311-1.163-0.311-1.678 0l-7.214 4.353c-1.222 0.737-2.738-0.35-2.405-1.727l1.961-8.123c0.14-0.58-0.060-1.189-0.519-1.577l-6.42-5.432c-1.088-0.92-0.509-2.68 0.919-2.793l8.426-0.667c0.602-0.048 1.126-0.424 1.358-0.975l3.246-7.71z"></path>
        </symbol>
    </defs>
</svg>